<?xml version="1.0" encoding="UTF-8"?>
<!DOCTYPE svg PUBLIC "-//W3C//DTD SVG 1.1//EN" "http://www.w3.org/Graphics/SVG/1.1/DTD/svg11.dtd">
<svg xmlns="http://www.w3.org/2000/svg" version="1.1" width="213px" height="206px" style="shape-rendering:geometricPrecision; text-rendering:geometricPrecision; image-rendering:optimizeQuality; fill-rule:evenodd; clip-rule:evenodd" xmlns:xlink="http://www.w3.org/1999/xlink">
<g><path style="opacity:0.761" fill="#9baaf0" d="M 116.5,19.5 C 107.836,18.2268 99.1695,18.2268 90.5,19.5C 90.5,19.1667 90.5,18.8333 90.5,18.5C 90.8333,18.5 91.1667,18.5 91.5,18.5C 95.8078,17.9827 100.141,17.6493 104.5,17.5C 108.797,17.2783 112.797,17.945 116.5,19.5 Z"/></g>
<g><path style="opacity:0.051" fill="#d3daf6" d="M 90.5,18.5 C 90.5,18.8333 90.5,19.1667 90.5,19.5C 86.3302,20.3688 82.3302,21.7021 78.5,23.5C 78.8333,22.8333 79.1667,22.1667 79.5,21.5C 82.9265,19.7261 86.5931,18.7261 90.5,18.5 Z"/></g>
<g><path style="opacity:0.012" fill="#dbe1f7" d="M 153.5,40.5 C 153.167,40.5 152.833,40.5 152.5,40.5C 149.178,36.1814 145.178,32.5147 140.5,29.5C 139.833,29.1667 139.167,28.8333 138.5,28.5C 134.962,26.2315 131.295,24.2315 127.5,22.5C 126.486,21.3263 125.153,20.6596 123.5,20.5C 121.097,20.552 118.764,20.2186 116.5,19.5C 112.797,17.945 108.797,17.2783 104.5,17.5C 100.141,17.6493 95.8078,17.9827 91.5,18.5C 110.723,14.4467 128.389,18.2801 144.5,30C 148.107,33.0977 151.107,36.5977 153.5,40.5 Z"/></g>
<g><path style="opacity:0.867" fill="#97a9f0" d="M 123.5,20.5 C 125.153,20.6596 126.486,21.3263 127.5,22.5C 125.517,22.8432 124.183,22.1765 123.5,20.5 Z"/></g>
<g><path style="opacity:0.075" fill="#e9edf8" d="M 79.5,21.5 C 79.1667,22.1667 78.8333,22.8333 78.5,23.5C 77.1667,23.8333 75.8333,24.1667 74.5,24.5C 75.6594,22.7497 77.326,21.7497 79.5,21.5 Z"/></g>
<g><path style="opacity:1" fill="#5d81e9" d="M 116.5,19.5 C 118.764,20.2186 121.097,20.552 123.5,20.5C 124.183,22.1765 125.517,22.8432 127.5,22.5C 131.295,24.2315 134.962,26.2315 138.5,28.5C 138.5,29.5 138.5,30.5 138.5,31.5C 115.49,31.8331 92.4903,31.4997 69.5,30.5C 69.8627,29.8165 70.1961,29.1499 70.5,28.5C 71.8333,27.1667 73.1667,25.8333 74.5,24.5C 75.8333,24.1667 77.1667,23.8333 78.5,23.5C 82.3302,21.7021 86.3302,20.3688 90.5,19.5C 99.1695,18.2268 107.836,18.2268 116.5,19.5 Z"/></g>
<g><path style="opacity:1" fill="#5786e8" d="M 70.5,28.5 C 70.1961,29.1499 69.8627,29.8165 69.5,30.5C 92.4903,31.4997 115.49,31.8331 138.5,31.5C 138.5,30.5 138.5,29.5 138.5,28.5C 139.167,28.8333 139.833,29.1667 140.5,29.5C 140.727,31.9975 142.06,33.6641 144.5,34.5C 117.506,35.6665 90.5062,35.8332 63.5,35C 65.3844,33.9513 66.7177,32.4513 67.5,30.5C 67.9731,29.0937 68.9731,28.427 70.5,28.5 Z"/></g>
<g><path style="opacity:0.337" fill="#d6e0f6" d="M 74.5,24.5 C 73.1667,25.8333 71.8333,27.1667 70.5,28.5C 68.9731,28.427 67.9731,29.0937 67.5,30.5C 63.2294,33.1009 59.5628,36.4342 56.5,40.5C 55.8333,40.8333 55.1667,41.1667 54.5,41.5C 59.3289,33.6711 65.9956,28.0044 74.5,24.5 Z"/></g>
<g><path style="opacity:1" fill="#558ce7" d="M 140.5,29.5 C 145.178,32.5147 149.178,36.1814 152.5,40.5C 150.039,41.531 147.373,42.1977 144.5,42.5C 118.144,43.8062 91.8104,43.8062 65.5,42.5C 62.2727,42.3239 59.2727,41.6572 56.5,40.5C 59.5628,36.4342 63.2294,33.1009 67.5,30.5C 66.7177,32.4513 65.3844,33.9513 63.5,35C 90.5062,35.8332 117.506,35.6665 144.5,34.5C 142.06,33.6641 140.727,31.9975 140.5,29.5 Z"/></g>
<g><path style="opacity:0.508" fill="#a9c5f0" d="M 56.5,40.5 C 59.2727,41.6572 62.2727,42.3239 65.5,42.5C 65.8333,43.1667 66.1667,43.8333 66.5,44.5C 64.0213,43.3773 61.688,43.3773 59.5,44.5C 57.6208,43.6586 55.6208,43.3253 53.5,43.5C 53.7709,45.3797 53.1042,46.713 51.5,47.5C 51.5,46.8333 51.5,46.1667 51.5,45.5C 51.7376,43.5956 52.7376,42.2623 54.5,41.5C 55.1667,41.1667 55.8333,40.8333 56.5,40.5 Z"/></g>
<g><path style="opacity:0.471" fill="#b5cdf2" d="M 152.5,40.5 C 152.833,40.5 153.167,40.5 153.5,40.5C 155.262,41.2623 156.262,42.5956 156.5,44.5C 156.5,45.1667 156.5,45.8333 156.5,46.5C 155.374,45.2858 154.041,44.2858 152.5,43.5C 151.416,43.685 150.416,44.0183 149.5,44.5C 149.158,43.6618 148.492,43.3284 147.5,43.5C 146.833,43.5 146.5,43.8333 146.5,44.5C 143.888,45.3705 141.221,46.0372 138.5,46.5C 140.19,44.6583 142.19,43.325 144.5,42.5C 147.373,42.1977 150.039,41.531 152.5,40.5 Z"/></g>
<g><path style="opacity:1" fill="#5393e6" d="M 65.5,42.5 C 91.8104,43.8062 118.144,43.8062 144.5,42.5C 142.19,43.325 140.19,44.6583 138.5,46.5C 136.784,46.6287 135.117,46.962 133.5,47.5C 131.188,48.3195 128.854,49.1529 126.5,50C 111.17,50.4999 95.837,50.6666 80.5,50.5C 79.1667,50.1667 77.8333,49.8333 76.5,49.5C 73.7534,46.7933 70.4201,45.1266 66.5,44.5C 66.1667,43.8333 65.8333,43.1667 65.5,42.5 Z"/></g>
<g><path style="opacity:0.082" fill="#e0eaf8" d="M 138.5,46.5 C 136.819,48.0075 134.819,49.0075 132.5,49.5C 132.833,48.8333 133.167,48.1667 133.5,47.5C 135.117,46.962 136.784,46.6287 138.5,46.5 Z"/></g>
<g><path style="opacity:0.086" fill="#d9e6f6" d="M 66.5,44.5 C 70.4201,45.1266 73.7534,46.7933 76.5,49.5C 73.5212,48.3465 70.5212,47.1798 67.5,46C 66.1667,45.3333 64.8333,45.3333 63.5,46C 70.4437,51.1054 76.1103,57.2721 80.5,64.5C 79.8333,64.1667 79.1667,63.8333 78.5,63.5C 77.8333,62.1667 76.8333,61.1667 75.5,60.5C 73.2119,56.5442 70.2119,53.2109 66.5,50.5C 64.1415,48.4707 61.8082,46.4707 59.5,44.5C 61.688,43.3773 64.0213,43.3773 66.5,44.5 Z"/></g>
<g><path style="opacity:1" fill="#5198e5" d="M 59.5,44.5 C 61.8082,46.4707 64.1415,48.4707 66.5,50.5C 66.6243,52.5816 67.6243,54.0816 69.5,55C 62.8417,55.4996 56.175,55.6663 49.5,55.5C 49.5,54.5 49.5,53.5 49.5,52.5C 49.7959,50.597 50.4625,48.9303 51.5,47.5C 53.1042,46.713 53.7709,45.3797 53.5,43.5C 55.6208,43.3253 57.6208,43.6586 59.5,44.5 Z"/></g>
<g><path style="opacity:0.243" fill="#dde9f7" d="M 76.5,49.5 C 77.8333,49.8333 79.1667,50.1667 80.5,50.5C 81.4363,51.9744 82.7697,52.9744 84.5,53.5C 85.5,54.8333 86.5,56.1667 87.5,57.5C 83.2934,55.5646 79.6267,52.8979 76.5,49.5 Z"/></g>
<g><path style="opacity:1" fill="#529ae6" d="M 156.5,46.5 C 157.89,47.8993 158.89,49.5659 159.5,51.5C 159.261,53.4672 159.594,55.3005 160.5,57C 152.833,57.6667 145.167,57.6667 137.5,57C 138.252,56.3292 138.586,55.4959 138.5,54.5C 141.558,50.4754 145.225,47.1421 149.5,44.5C 150.416,44.0183 151.416,43.685 152.5,43.5C 154.041,44.2858 155.374,45.2858 156.5,46.5 Z"/></g>
<g><path style="opacity:1" fill="#519ae5" d="M 133.5,47.5 C 133.167,48.1667 132.833,48.8333 132.5,49.5C 128.603,51.0604 124.936,53.0604 121.5,55.5C 110.162,55.6665 98.8284,55.4999 87.5,55C 86.7562,53.9614 85.7562,53.4614 84.5,53.5C 82.7697,52.9744 81.4363,51.9744 80.5,50.5C 95.837,50.6666 111.17,50.4999 126.5,50C 128.854,49.1529 131.188,48.3195 133.5,47.5 Z"/></g>
<g><path style="opacity:0.031" fill="#e3edf7" d="M 156.5,44.5 C 159.502,47.1612 161.502,50.4945 162.5,54.5C 161.833,54.1667 161.167,53.8333 160.5,53.5C 160.672,52.5084 160.338,51.8417 159.5,51.5C 158.89,49.5659 157.89,47.8993 156.5,46.5C 156.5,45.8333 156.5,45.1667 156.5,44.5 Z"/></g>
<g><path style="opacity:0.322" fill="#d5e5f6" d="M 147.5,43.5 C 148.492,43.3284 149.158,43.6618 149.5,44.5C 145.225,47.1421 141.558,50.4754 138.5,54.5C 135.757,56.2393 133.757,58.5726 132.5,61.5C 131.167,62.5 129.833,63.5 128.5,64.5C 133.424,56.9067 139.424,50.2401 146.5,44.5C 147.167,44.5 147.5,44.1667 147.5,43.5 Z"/></g>
<g><path style="opacity:0.188" fill="#d5e5f6" d="M 51.5,45.5 C 51.5,46.1667 51.5,46.8333 51.5,47.5C 50.4625,48.9303 49.7959,50.597 49.5,52.5C 48.0937,52.9731 47.427,53.9731 47.5,55.5C 46.8333,55.8333 46.1667,56.1667 45.5,56.5C 46.7417,52.3447 48.7417,48.678 51.5,45.5 Z"/></g>
<g><path style="opacity:1" fill="#4ca0e4" d="M 66.5,50.5 C 70.2119,53.2109 73.2119,56.5442 75.5,60.5C 75.5394,61.5832 75.8728,62.5832 76.5,63.5C 66.5222,64.4985 56.5222,64.8319 46.5,64.5C 46.3677,61.4299 46.701,58.4299 47.5,55.5C 47.427,53.9731 48.0937,52.9731 49.5,52.5C 49.5,53.5 49.5,54.5 49.5,55.5C 56.175,55.6663 62.8417,55.4996 69.5,55C 67.6243,54.0816 66.6243,52.5816 66.5,50.5 Z"/></g>
<g><path style="opacity:1" fill="#4ca0e4" d="M 84.5,53.5 C 85.7562,53.4614 86.7562,53.9614 87.5,55C 98.8284,55.4999 110.162,55.6665 121.5,55.5C 118.5,58.5 115.5,61.5 112.5,64.5C 106.441,64.7461 100.441,64.4128 94.5,63.5C 92.7607,60.7573 90.4274,58.7573 87.5,57.5C 86.5,56.1667 85.5,54.8333 84.5,53.5 Z"/></g>
<g><path style="opacity:1" fill="#4aa0e4" d="M 159.5,51.5 C 160.338,51.8417 160.672,52.5084 160.5,53.5C 161.422,57.1119 162.089,60.7785 162.5,64.5C 152.5,64.5 142.5,64.5 132.5,64.5C 132.5,63.5 132.5,62.5 132.5,61.5C 133.757,58.5726 135.757,56.2393 138.5,54.5C 138.586,55.4959 138.252,56.3292 137.5,57C 145.167,57.6667 152.833,57.6667 160.5,57C 159.594,55.3005 159.261,53.4672 159.5,51.5 Z"/></g>
<g><path style="opacity:0.369" fill="#cde3f5" d="M 132.5,49.5 C 121.787,56.5459 113.12,65.5459 106.5,76.5C 106.557,75.391 106.89,74.391 107.5,73.5C 108.738,70.2622 110.404,67.2622 112.5,64.5C 115.5,61.5 118.5,58.5 121.5,55.5C 124.936,53.0604 128.603,51.0604 132.5,49.5 Z"/></g>
<g><path style="opacity:1" fill="#4aa9e4" d="M 94.5,63.5 C 100.441,64.4128 106.441,64.7461 112.5,64.5C 110.404,67.2622 108.738,70.2622 107.5,73.5C 105.907,74.3479 104.74,75.6813 104,77.5C 103.768,76.2625 103.268,75.2625 102.5,74.5C 100.078,70.6562 97.4113,66.9895 94.5,63.5 Z"/></g>
<g><path style="opacity:0.247" fill="#cfe6f5" d="M 128.5,64.5 C 127.833,66.5 127.167,68.5 126.5,70.5C 124.97,71.2112 123.637,72.2112 122.5,73.5C 123.723,69.9505 125.723,66.9505 128.5,64.5 Z"/></g>
<g><path style="opacity:0.129" fill="#d5e9f6" d="M 80.5,64.5 C 82.9501,66.6291 84.6167,69.2957 85.5,72.5C 83.0071,70.3424 81.3405,67.6757 80.5,64.5 Z"/></g>
<g><path style="opacity:1" fill="#44a9e3" d="M 160.5,53.5 C 161.167,53.8333 161.833,54.1667 162.5,54.5C 163.038,58.5236 163.705,62.5236 164.5,66.5C 164.5,69.1667 164.5,71.8333 164.5,74.5C 151.483,74.8325 138.483,74.4991 125.5,73.5C 126.127,72.5832 126.461,71.5832 126.5,70.5C 127.167,68.5 127.833,66.5 128.5,64.5C 129.833,63.5 131.167,62.5 132.5,61.5C 132.5,62.5 132.5,63.5 132.5,64.5C 142.5,64.5 152.5,64.5 162.5,64.5C 162.089,60.7785 161.422,57.1119 160.5,53.5 Z"/></g>
<g><path style="opacity:1" fill="#43a9e3" d="M 47.5,55.5 C 46.701,58.4299 46.3677,61.4299 46.5,64.5C 56.5222,64.8319 66.5222,64.4985 76.5,63.5C 75.8728,62.5832 75.5394,61.5832 75.5,60.5C 76.8333,61.1667 77.8333,62.1667 78.5,63.5C 78.3433,64.8734 78.51,66.2068 79,67.5C 81.9377,69.7331 83.4377,72.3997 83.5,75.5C 70.2162,74.5184 56.8828,74.185 43.5,74.5C 43.5,72.1667 43.5,69.8333 43.5,67.5C 44.4339,64.3443 45.1006,61.0109 45.5,57.5C 45.5,57.1667 45.5,56.8333 45.5,56.5C 46.1667,56.1667 46.8333,55.8333 47.5,55.5 Z"/></g>
<g><path style="opacity:0.2" fill="#d5ebf5" d="M 122.5,73.5 C 122.371,75.2161 122.038,76.8828 121.5,78.5C 120.833,78.8333 120.167,79.1667 119.5,79.5C 119.992,77.1815 120.992,75.1815 122.5,73.5 Z"/></g>
<g><path style="opacity:1" fill="#3eb1e1" d="M 78.5,63.5 C 79.1667,63.8333 79.8333,64.1667 80.5,64.5C 81.3405,67.6757 83.0071,70.3424 85.5,72.5C 86.0147,74.8945 86.6814,77.2278 87.5,79.5C 88.038,81.1172 88.3713,82.7839 88.5,84.5C 73.3553,84.1896 58.3553,84.1896 43.5,84.5C 43.5,81.1667 43.5,77.8333 43.5,74.5C 56.8828,74.185 70.2162,74.5184 83.5,75.5C 83.4377,72.3997 81.9377,69.7331 79,67.5C 78.51,66.2068 78.3433,64.8734 78.5,63.5 Z"/></g>
<g><path style="opacity:1" fill="#3fb1e1" d="M 164.5,66.5 C 166.078,71.5826 166.745,76.916 166.5,82.5C 165.833,83.1667 165.167,83.8333 164.5,84.5C 149.899,84.2738 135.232,84.2738 120.5,84.5C 120.517,82.4352 120.85,80.4352 121.5,78.5C 122.038,76.8828 122.371,75.2161 122.5,73.5C 123.637,72.2112 124.97,71.2112 126.5,70.5C 126.461,71.5832 126.127,72.5832 125.5,73.5C 138.483,74.4991 151.483,74.8325 164.5,74.5C 164.5,71.8333 164.5,69.1667 164.5,66.5 Z"/></g>
<g><path style="opacity:0.369" fill="#d6ebf5" d="M 45.5,57.5 C 45.1006,61.0109 44.4339,64.3443 43.5,67.5C 42.5073,75.6499 42.1739,83.9832 42.5,92.5C 39.4662,80.5029 40.4662,68.8362 45.5,57.5 Z"/></g>
<g><path style="opacity:0.268" fill="#daeef6" d="M 162.5,54.5 C 170.41,71.1846 170.41,87.8513 162.5,104.5C 162.5,104.167 162.5,103.833 162.5,103.5C 163.219,101.236 163.552,98.9029 163.5,96.5C 165.557,92.1979 166.557,87.5312 166.5,82.5C 166.745,76.916 166.078,71.5826 164.5,66.5C 163.705,62.5236 163.038,58.5236 162.5,54.5 Z"/></g>
<g><path style="opacity:1" fill="#44bbe1" d="M 43.5,67.5 C 43.5,69.8333 43.5,72.1667 43.5,74.5C 43.5,77.8333 43.5,81.1667 43.5,84.5C 58.3553,84.1896 73.3553,84.1896 88.5,84.5C 88.3713,82.7839 88.038,81.1172 87.5,79.5C 90.7335,84.2072 92.4002,89.5406 92.5,95.5C 92.2089,96.6491 91.3756,97.3158 90,97.5C 86.1552,95.9841 82.3219,94.6508 78.5,93.5C 77.713,91.8958 76.3797,91.2291 74.5,91.5C 71.5091,88.6112 67.8424,87.2779 63.5,87.5C 62.2015,85.9014 60.5348,85.4014 58.5,86C 59.6988,87.6943 61.0322,89.1943 62.5,90.5C 56.69,91.4896 50.69,91.8229 44.5,91.5C 44.5,92.5 44.5,93.5 44.5,94.5C 43.8333,93.8333 43.1667,93.1667 42.5,92.5C 42.1739,83.9832 42.5073,75.6499 43.5,67.5 Z"/></g>
<g><path style="opacity:0.925" fill="#78cae9" d="M 107.5,73.5 C 106.89,74.391 106.557,75.391 106.5,76.5C 106.245,78.9674 105.245,80.9674 103.5,82.5C 101.307,84.5223 100.307,87.1889 100.5,90.5C 99.0937,90.9731 98.427,91.9731 98.5,93.5C 97.6618,93.1583 97.3284,92.4916 97.5,91.5C 98.9845,85.7197 100.651,80.0531 102.5,74.5C 103.268,75.2625 103.768,76.2625 104,77.5C 104.74,75.6813 105.907,74.3479 107.5,73.5 Z"/></g>
<g><path style="opacity:0.184" fill="#d6edf6" d="M 119.5,80.5 C 119.245,82.9674 118.245,84.9674 116.5,86.5C 116.755,84.0326 117.755,82.0326 119.5,80.5 Z"/></g>
<g><path style="opacity:1" fill="#3bb8e0" d="M 164.5,84.5 C 164.664,87.1873 164.497,89.854 164,92.5C 159.586,91.6971 155.086,91.1971 150.5,91C 151.381,90.2917 152.047,89.4584 152.5,88.5C 152.953,87.5416 153.619,86.7083 154.5,86C 150.966,85.1361 147.966,85.9694 145.5,88.5C 143.097,88.448 140.764,88.7814 138.5,89.5C 131.632,91.2254 124.632,91.8921 117.5,91.5C 117.15,88.5466 118.15,86.2133 120.5,84.5C 135.232,84.2738 149.899,84.2738 164.5,84.5 Z"/></g>
<g><path style="opacity:0.247" fill="#c3e9f3" d="M 152.5,88.5 C 149.63,89.4333 147.296,91.1 145.5,93.5C 141.79,95.8422 138.79,98.8422 136.5,102.5C 134.833,103.833 133.167,105.167 131.5,106.5C 135.713,99.3651 141.379,93.5318 148.5,89C 147.552,88.5172 146.552,88.3505 145.5,88.5C 147.966,85.9694 150.966,85.1361 154.5,86C 153.619,86.7083 152.953,87.5416 152.5,88.5 Z"/></g>
<g><path style="opacity:0.573" fill="#c7e9f3" d="M 63.5,88.5 C 63.5,88.1667 63.5,87.8333 63.5,87.5C 67.8424,87.2779 71.5091,88.6112 74.5,91.5C 70.8899,90.2967 67.2232,89.2967 63.5,88.5 Z"/></g>
<g><path style="opacity:0.043" fill="#d7eef6" d="M 103.5,82.5 C 103.267,85.5418 102.267,88.2084 100.5,90.5C 100.307,87.1889 101.307,84.5223 103.5,82.5 Z"/></g>
<g><path style="opacity:0.329" fill="#c6e7f3" d="M 87.5,57.5 C 90.4274,58.7573 92.7607,60.7573 94.5,63.5C 97.4113,66.9895 100.078,70.6562 102.5,74.5C 100.651,80.0531 98.9845,85.7197 97.5,91.5C 96.2082,93.2549 95.2082,95.2549 94.5,97.5C 93.8182,96.7573 93.1515,96.0906 92.5,95.5C 92.4002,89.5406 90.7335,84.2072 87.5,79.5C 86.6814,77.2278 86.0147,74.8945 85.5,72.5C 87.4741,74.428 88.9741,76.7613 90,79.5C 91.414,83.984 93.0807,88.3174 95,92.5C 96.477,86.715 98.6437,81.215 101.5,76C 97.3852,69.3892 92.7185,63.2226 87.5,57.5 Z"/></g>
<g><path style="opacity:0.047" fill="#d0edf4" d="M 145.5,88.5 C 141.441,90.028 137.441,91.8613 133.5,94C 128.32,97.6899 123.32,101.523 118.5,105.5C 118.369,104.761 118.536,104.094 119,103.5C 124.872,97.7692 131.372,93.1025 138.5,89.5C 140.764,88.7814 143.097,88.448 145.5,88.5 Z"/></g>
<g><path style="opacity:0.267" fill="#c3e8f3" d="M 63.5,87.5 C 62.1667,87.8333 62.1667,88.1667 63.5,88.5C 65.8061,90.1394 67.8061,92.1394 69.5,94.5C 69.1667,94.5 68.8333,94.5 68.5,94.5C 66.7541,92.7484 64.7541,91.4151 62.5,90.5C 61.0322,89.1943 59.6988,87.6943 58.5,86C 60.5348,85.4014 62.2015,85.9014 63.5,87.5 Z"/></g>
<g><path style="opacity:1" fill="#36bedf" d="M 62.5,90.5 C 64.7541,91.4151 66.7541,92.7484 68.5,94.5C 68.4142,95.4959 68.7476,96.3292 69.5,97C 60.9739,98.0313 52.6405,97.5313 44.5,95.5C 44.5,95.1667 44.5,94.8333 44.5,94.5C 44.5,93.5 44.5,92.5 44.5,91.5C 50.69,91.8229 56.69,91.4896 62.5,90.5 Z"/></g>
<g><path style="opacity:0.192" fill="#d2edf5" d="M 74.5,91.5 C 76.3797,91.2291 77.713,91.8958 78.5,93.5C 76.847,93.3404 75.5137,92.6737 74.5,91.5 Z"/></g>
<g><path style="opacity:1" fill="#48c3e1" d="M 121.5,78.5 C 120.85,80.4352 120.517,82.4352 120.5,84.5C 118.15,86.2133 117.15,88.5466 117.5,91.5C 124.632,91.8921 131.632,91.2254 138.5,89.5C 131.372,93.1025 124.872,97.7692 119,103.5C 118.536,104.094 118.369,104.761 118.5,105.5C 117.833,105.833 117.167,106.167 116.5,106.5C 114.631,104.365 113.964,101.698 114.5,98.5C 115.273,94.8598 115.94,91.1932 116.5,87.5C 116.5,87.1667 116.5,86.8333 116.5,86.5C 118.245,84.9674 119.245,82.9674 119.5,80.5C 119.5,80.1667 119.5,79.8333 119.5,79.5C 120.167,79.1667 120.833,78.8333 121.5,78.5 Z"/></g>
<g><path style="opacity:1" fill="#40c0e0" d="M 166.5,82.5 C 166.557,87.5312 165.557,92.1979 163.5,96.5C 156.914,97.6258 150.247,97.7925 143.5,97C 144.823,96.1841 145.489,95.0174 145.5,93.5C 147.296,91.1 149.63,89.4333 152.5,88.5C 152.047,89.4584 151.381,90.2917 150.5,91C 155.086,91.1971 159.586,91.6971 164,92.5C 164.497,89.854 164.664,87.1873 164.5,84.5C 165.167,83.8333 165.833,83.1667 166.5,82.5 Z"/></g>
<g><path style="opacity:0.004" fill="#e1f3f7" d="M 69.5,94.5 C 72.8333,95.8333 75.1667,98.1667 76.5,101.5C 75.8333,101.167 75.1667,100.833 74.5,100.5C 72.8333,98.5 71.1667,96.5 69.5,94.5 Z"/></g>
<g><path style="opacity:0.263" fill="#d1eef5" d="M 100.5,90.5 C 100.029,94.356 99.3624,98.1893 98.5,102C 98.7728,103.533 99.1062,105.033 99.5,106.5C 98.8826,106.389 98.3826,106.056 98,105.5C 97.3933,101.463 97.56,97.4631 98.5,93.5C 98.427,91.9731 99.0937,90.9731 100.5,90.5 Z"/></g>
<g><path style="opacity:0.486" fill="#c6ebf3" d="M 116.5,87.5 C 115.94,91.1932 115.273,94.8598 114.5,98.5C 114.167,98.5 113.833,98.5 113.5,98.5C 113.63,94.4754 114.63,90.8088 116.5,87.5 Z"/></g>
<g><path style="opacity:0.196" fill="#d2eff5" d="M 42.5,92.5 C 43.1667,93.1667 43.8333,93.8333 44.5,94.5C 44.5,94.8333 44.5,95.1667 44.5,95.5C 45.0417,98.6727 46.0417,101.673 47.5,104.5C 47.8333,105.833 48.1667,107.167 48.5,108.5C 45.1481,103.79 43.1481,98.4571 42.5,92.5 Z"/></g>
<g><path style="opacity:1" fill="#36c5df" d="M 68.5,94.5 C 68.8333,94.5 69.1667,94.5 69.5,94.5C 71.1667,96.5 72.8333,98.5 74.5,100.5C 74.5394,101.583 74.8728,102.583 75.5,103.5C 66.1904,104.498 56.8571,104.832 47.5,104.5C 46.0417,101.673 45.0417,98.6727 44.5,95.5C 52.6405,97.5313 60.9739,98.0313 69.5,97C 68.7476,96.3292 68.4142,95.4959 68.5,94.5 Z"/></g>
<g><path style="opacity:0.353" fill="#d3eff5" d="M 84.5,97.5 C 86.7488,98.0798 88.4154,99.4131 89.5,101.5C 87.2512,100.92 85.5846,99.5869 84.5,97.5 Z"/></g>
<g><path style="opacity:1" fill="#61cfe4" d="M 97.5,91.5 C 97.3284,92.4916 97.6618,93.1583 98.5,93.5C 97.56,97.4631 97.3933,101.463 98,105.5C 98.3826,106.056 98.8826,106.389 99.5,106.5C 99.427,108.027 100.094,109.027 101.5,109.5C 102.906,109.973 103.573,110.973 103.5,112.5C 102.518,111.859 101.518,111.193 100.5,110.5C 99.8933,110.624 99.56,110.957 99.5,111.5C 99.1667,111.5 98.8333,111.5 98.5,111.5C 96.8757,106.911 93.8757,103.577 89.5,101.5C 88.4154,99.4131 86.7488,98.0798 84.5,97.5C 82.1475,96.6597 80.1475,95.3264 78.5,93.5C 82.3219,94.6508 86.1552,95.9841 90,97.5C 91.3756,97.3158 92.2089,96.6491 92.5,95.5C 93.1515,96.0906 93.8182,96.7573 94.5,97.5C 95.2082,95.2549 96.2082,93.2549 97.5,91.5 Z"/></g>
<g><path style="opacity:1" fill="#37c5df" d="M 145.5,93.5 C 145.489,95.0174 144.823,96.1841 143.5,97C 150.247,97.7925 156.914,97.6258 163.5,96.5C 163.552,98.9029 163.219,101.236 162.5,103.5C 162.167,103.5 161.833,103.5 161.5,103.5C 153.882,104.6 146.215,104.767 138.5,104C 137.956,103.283 137.289,102.783 136.5,102.5C 138.79,98.8422 141.79,95.8422 145.5,93.5 Z"/></g>
<g><path style="opacity:1" fill="#33cede" d="M 74.5,100.5 C 75.1667,100.833 75.8333,101.167 76.5,101.5C 77.75,104.067 78.9167,106.733 80,109.5C 82.6082,111.923 84.7749,114.59 86.5,117.5C 86.6309,118.376 86.2975,119.043 85.5,119.5C 84.5832,118.873 83.5832,118.539 82.5,118.5C 81.3951,117.4 80.0618,116.733 78.5,116.5C 78.0269,115.094 77.0269,114.427 75.5,114.5C 73.0092,112.378 70.1758,110.711 67,109.5C 66.5,109.833 66,110.167 65.5,110.5C 67.188,111.521 68.5213,112.855 69.5,114.5C 69.4142,115.496 69.7476,116.329 70.5,117C 65.8452,117.499 61.1785,117.666 56.5,117.5C 53.9662,114.421 51.2996,111.421 48.5,108.5C 48.1667,107.167 47.8333,105.833 47.5,104.5C 56.8571,104.832 66.1904,104.498 75.5,103.5C 74.8728,102.583 74.5394,101.583 74.5,100.5 Z"/></g>
<g><path style="opacity:1" fill="#36cede" d="M 136.5,102.5 C 137.289,102.783 137.956,103.283 138.5,104C 146.215,104.767 153.882,104.6 161.5,103.5C 159.672,109.832 156.339,115.165 151.5,119.5C 147.767,118.179 143.934,118.179 140,119.5C 139.536,118.906 139.369,118.239 139.5,117.5C 141.17,114.998 143.336,112.998 146,111.5C 146.432,110.4 145.932,109.733 144.5,109.5C 139.593,110.9 135.593,113.566 132.5,117.5C 131.027,118.071 129.36,118.071 127.5,117.5C 127.5,116.5 127.5,115.5 127.5,114.5C 129.238,112.079 130.571,109.412 131.5,106.5C 133.167,105.167 134.833,103.833 136.5,102.5 Z"/></g>
<g><path style="opacity:0.267" fill="#d8f2f5" d="M 113.5,100.5 C 114.172,103.942 113.172,106.609 110.5,108.5C 111.751,105.868 112.751,103.201 113.5,100.5 Z"/></g>
<g><path style="opacity:1" fill="#a4e6ed" d="M 76.5,101.5 C 81.7266,106.281 85.7266,111.948 88.5,118.5C 87.8333,118.167 87.1667,117.833 86.5,117.5C 84.7749,114.59 82.6082,111.923 80,109.5C 78.9167,106.733 77.75,104.067 76.5,101.5 Z"/></g>
<g><path style="opacity:0.18" fill="#d3f1f5" d="M 99.5,106.5 C 100.906,106.973 101.573,107.973 101.5,109.5C 100.094,109.027 99.427,108.027 99.5,106.5 Z"/></g>
<g><path style="opacity:0.129" fill="#cbeff4" d="M 89.5,101.5 C 93.8757,103.577 96.8757,106.911 98.5,111.5C 95.0413,108.585 92.0413,105.252 89.5,101.5 Z"/></g>
<g><path style="opacity:0.129" fill="#ccf0f4" d="M 118.5,105.5 C 117.581,108.089 115.914,110.089 113.5,111.5C 114.075,109.589 115.075,107.922 116.5,106.5C 117.167,106.167 117.833,105.833 118.5,105.5 Z"/></g>
<g><path style="opacity:1" fill="#98e5eb" d="M 48.5,108.5 C 51.2996,111.421 53.9662,114.421 56.5,117.5C 56.5,118.5 56.5,119.5 56.5,120.5C 52.8442,117.197 50.1775,113.197 48.5,108.5 Z"/></g>
<g><path style="opacity:0.188" fill="#d4f2f5" d="M 131.5,106.5 C 130.571,109.412 129.238,112.079 127.5,114.5C 126.833,114.833 126.167,115.167 125.5,115.5C 126.723,111.951 128.723,108.951 131.5,106.5 Z"/></g>
<g><path style="opacity:0.047" fill="#ccf1f4" d="M 75.5,114.5 C 74.1526,113.972 72.8193,113.805 71.5,114C 73.7899,115.777 75.4566,117.944 76.5,120.5C 74.1667,118.5 71.8333,116.5 69.5,114.5C 68.5213,112.855 67.188,111.521 65.5,110.5C 66,110.167 66.5,109.833 67,109.5C 70.1758,110.711 73.0092,112.378 75.5,114.5 Z"/></g>
<g><path style="opacity:0.176" fill="#cdf1f4" d="M 113.5,111.5 C 112.66,113.853 111.326,115.853 109.5,117.5C 109.845,114.802 111.178,112.802 113.5,111.5 Z"/></g>
<g><path style="opacity:0.255" fill="#caf1f3" d="M 139.5,117.5 C 138.194,119.473 136.527,121.139 134.5,122.5C 136.112,119.462 138.112,116.629 140.5,114C 137.562,114.411 134.895,115.578 132.5,117.5C 135.593,113.566 139.593,110.9 144.5,109.5C 145.932,109.733 146.432,110.4 146,111.5C 143.336,112.998 141.17,114.998 139.5,117.5 Z"/></g>
<g><path style="opacity:0.251" fill="#d9f4f6" d="M 75.5,114.5 C 77.0269,114.427 78.0269,115.094 78.5,116.5C 76.9731,116.573 75.9731,115.906 75.5,114.5 Z"/></g>
<g><path style="opacity:0.514" fill="#bff0f2" d="M 78.5,116.5 C 80.0618,116.733 81.3951,117.4 82.5,118.5C 83.6005,119.605 84.2671,120.938 84.5,122.5C 82.1667,120.833 80.1667,118.833 78.5,116.5 Z"/></g>
<g><path style="opacity:0.216" fill="#c0eef2" d="M 161.5,103.5 C 161.833,103.5 162.167,103.5 162.5,103.5C 162.5,103.833 162.5,104.167 162.5,104.5C 160.574,111.368 156.907,117.034 151.5,121.5C 151.5,120.833 151.5,120.167 151.5,119.5C 156.339,115.165 159.672,109.832 161.5,103.5 Z"/></g>
<g><path style="opacity:1" fill="#5cdae3" d="M 113.5,98.5 C 113.833,98.5 114.167,98.5 114.5,98.5C 113.964,101.698 114.631,104.365 116.5,106.5C 115.075,107.922 114.075,109.589 113.5,111.5C 111.178,112.802 109.845,114.802 109.5,117.5C 108.026,118.436 107.026,119.77 106.5,121.5C 105.833,121.5 105.167,121.5 104.5,121.5C 103.718,117.72 102.052,114.387 99.5,111.5C 99.56,110.957 99.8933,110.624 100.5,110.5C 101.518,111.193 102.518,111.859 103.5,112.5C 104.833,116.5 106.167,116.5 107.5,112.5C 107.738,110.596 108.738,109.262 110.5,108.5C 113.172,106.609 114.172,103.942 113.5,100.5C 113.5,99.8333 113.5,99.1667 113.5,98.5 Z"/></g>
<g><path style="opacity:0.008" fill="#daf4f6" d="M 103.5,112.5 C 104.833,113.833 106.167,113.833 107.5,112.5C 106.167,116.5 104.833,116.5 103.5,112.5 Z"/></g>
<g><path style="opacity:0.737" fill="#b2efef" d="M 88.5,118.5 C 90.5918,121.088 91.9251,124.088 92.5,127.5C 89.8352,125.165 88.5018,122.165 88.5,118.5 Z"/></g>
<g><path style="opacity:0.016" fill="#d4f4f5" d="M 109.5,117.5 C 109.245,119.967 108.245,121.967 106.5,123.5C 106.5,122.833 106.5,122.167 106.5,121.5C 107.026,119.77 108.026,118.436 109.5,117.5 Z"/></g>
<g><path style="opacity:0.616" fill="#abedee" d="M 127.5,114.5 C 127.5,115.5 127.5,116.5 127.5,117.5C 129.36,118.071 131.027,118.071 132.5,117.5C 130.856,119.481 129.19,121.481 127.5,123.5C 129.375,120.648 128.709,118.648 125.5,117.5C 122.462,124.236 119.462,130.902 116.5,137.5C 116.678,134.784 117.178,132.117 118,129.5C 119.929,124.437 122.429,119.77 125.5,115.5C 126.167,115.167 126.833,114.833 127.5,114.5 Z"/></g>
<g><path style="opacity:0.133" fill="#d2f4f5" d="M 76.5,120.5 C 78.2503,121.659 79.2503,123.326 79.5,125.5C 77.7497,124.341 76.7497,122.674 76.5,120.5 Z"/></g>
<g><path style="opacity:1" fill="#5ce4e2" d="M 86.5,117.5 C 87.1667,117.833 87.8333,118.167 88.5,118.5C 88.5018,122.165 89.8352,125.165 92.5,127.5C 93.871,129.936 94.871,132.603 95.5,135.5C 95.5,137.5 95.5,139.5 95.5,141.5C 94.5,141.5 93.5,141.5 92.5,141.5C 92.9206,135.131 90.9206,129.797 86.5,125.5C 86.573,123.973 85.9063,122.973 84.5,122.5C 84.2671,120.938 83.6005,119.605 82.5,118.5C 83.5832,118.539 84.5832,118.873 85.5,119.5C 86.2975,119.043 86.6309,118.376 86.5,117.5 Z"/></g>
<g><path style="opacity:1" fill="#4de1e0" d="M 127.5,123.5 C 123.434,126.306 121.434,130.306 121.5,135.5C 119.744,136.552 119.077,138.219 119.5,140.5C 118.5,140.5 117.5,140.5 116.5,140.5C 116.5,139.5 116.5,138.5 116.5,137.5C 119.462,130.902 122.462,124.236 125.5,117.5C 128.709,118.648 129.375,120.648 127.5,123.5 Z"/></g>
<g><path style="opacity:0.22" fill="#ccf3f4" d="M 56.5,120.5 C 59.0913,122.424 61.4246,124.758 63.5,127.5C 60.1886,126.189 57.8552,123.855 56.5,120.5 Z"/></g>
<g><path style="opacity:0.031" fill="#d7f5f6" d="M 84.5,122.5 C 85.9063,122.973 86.573,123.973 86.5,125.5C 85.0937,125.027 84.427,124.027 84.5,122.5 Z"/></g>
<g><path style="opacity:1" fill="#30dddc" d="M 69.5,114.5 C 71.8333,116.5 74.1667,118.5 76.5,120.5C 76.7497,122.674 77.7497,124.341 79.5,125.5C 80.2074,129.248 81.2074,132.914 82.5,136.5C 78.6666,135.975 75,134.975 71.5,133.5C 71.0269,132.094 70.0269,131.427 68.5,131.5C 67.4154,129.413 65.7488,128.08 63.5,127.5C 61.4246,124.758 59.0913,122.424 56.5,120.5C 56.5,119.5 56.5,118.5 56.5,117.5C 61.1785,117.666 65.8452,117.499 70.5,117C 69.7476,116.329 69.4142,115.496 69.5,114.5 Z"/></g>
<g><path style="opacity:0.161" fill="#cff5f4" d="M 98.5,111.5 C 98.8333,111.5 99.1667,111.5 99.5,111.5C 102.052,114.387 103.718,117.72 104.5,121.5C 100.601,127.525 98.2681,134.192 97.5,141.5C 98.5,141.5 99.5,141.5 100.5,141.5C 100.189,142.478 99.5223,143.145 98.5,143.5C 96.3432,142.95 94.3432,142.283 92.5,141.5C 93.5,141.5 94.5,141.5 95.5,141.5C 95.5,139.5 95.5,137.5 95.5,135.5C 98.4921,130.715 100.825,125.549 102.5,120C 101.298,117.097 99.965,114.264 98.5,111.5 Z"/></g>
<g><path style="opacity:1" fill="#40dfde" d="M 139.5,117.5 C 139.369,118.239 139.536,118.906 140,119.5C 143.934,118.179 147.767,118.179 151.5,119.5C 151.5,120.167 151.5,120.833 151.5,121.5C 150.167,123.5 148.5,125.167 146.5,126.5C 144.251,127.08 142.585,128.413 141.5,130.5C 139.973,130.427 138.973,131.094 138.5,132.5C 136.326,132.75 134.659,133.75 133.5,135.5C 132.417,135.539 131.417,135.873 130.5,136.5C 130.167,136 129.833,135.5 129.5,135C 131.875,131.122 133.541,126.956 134.5,122.5C 136.527,121.139 138.194,119.473 139.5,117.5 Z"/></g>
<g><path style="opacity:0.125" fill="#cdf4f4" d="M 146.5,126.5 C 145.415,128.587 143.749,129.92 141.5,130.5C 142.585,128.413 144.251,127.08 146.5,126.5 Z"/></g>
<g><path style="opacity:0.78" fill="#aef2ee" d="M 79.5,125.5 C 82.2937,129.381 83.7937,133.714 84,138.5C 82.9505,139.517 81.7839,139.684 80.5,139C 77.1019,137.643 74.1019,135.81 71.5,133.5C 75,134.975 78.6666,135.975 82.5,136.5C 81.2074,132.914 80.2074,129.248 79.5,125.5 Z"/></g>
<g><path style="opacity:0.145" fill="#d2f5f5" d="M 106.5,123.5 C 106.065,126.157 105.065,128.491 103.5,130.5C 103.552,127.654 104.552,125.32 106.5,123.5 Z"/></g>
<g><path style="opacity:0.318" fill="#c7f4f3" d="M 63.5,127.5 C 65.7488,128.08 67.4154,129.413 68.5,131.5C 66.2512,130.92 64.5846,129.587 63.5,127.5 Z"/></g>
<g><path style="opacity:0.118" fill="#cef5f4" d="M 134.5,122.5 C 133.541,126.956 131.875,131.122 129.5,135C 129.833,135.5 130.167,136 130.5,136.5C 131.417,135.873 132.417,135.539 133.5,135.5C 132.365,137.213 130.698,137.88 128.5,137.5C 128.584,131.675 130.584,126.675 134.5,122.5 Z"/></g>
<g><path style="opacity:0.106" fill="#d2f5f4" d="M 127.5,123.5 C 125.467,127.565 123.467,131.565 121.5,135.5C 121.434,130.306 123.434,126.306 127.5,123.5 Z"/></g>
<g><path style="opacity:0.047" fill="#cff5f4" d="M 141.5,130.5 C 141.027,131.906 140.027,132.573 138.5,132.5C 138.973,131.094 139.973,130.427 141.5,130.5 Z"/></g>
<g><path style="opacity:0.173" fill="#d3f6f4" d="M 68.5,131.5 C 70.0269,131.427 71.0269,132.094 71.5,133.5C 69.9731,133.573 68.9731,132.906 68.5,131.5 Z"/></g>
<g><path style="opacity:0.957" fill="#64e8e3" d="M 104.5,121.5 C 105.167,121.5 105.833,121.5 106.5,121.5C 106.5,122.167 106.5,122.833 106.5,123.5C 104.552,125.32 103.552,127.654 103.5,130.5C 103.5,130.833 103.5,131.167 103.5,131.5C 101.903,133.848 100.903,136.514 100.5,139.5C 100.5,140.167 100.5,140.833 100.5,141.5C 99.5,141.5 98.5,141.5 97.5,141.5C 98.2681,134.192 100.601,127.525 104.5,121.5 Z"/></g>
<g><path style="opacity:0.271" fill="#c2f4f2" d="M 138.5,132.5 C 137.341,134.25 135.674,135.25 133.5,135.5C 134.659,133.75 136.326,132.75 138.5,132.5 Z"/></g>
<g><path style="opacity:0.329" fill="#c8f5f3" d="M 86.5,125.5 C 90.9206,129.797 92.9206,135.131 92.5,141.5C 91.1112,136.034 89.1112,130.701 86.5,125.5 Z"/></g>
<g><path style="opacity:0.051" fill="#dcf8f6" d="M 103.5,131.5 C 103.397,134.636 102.397,137.302 100.5,139.5C 100.903,136.514 101.903,133.848 103.5,131.5 Z"/></g>
<g><path style="opacity:0.012" fill="#d2f7f4" d="M 121.5,135.5 C 121.167,137.5 120.833,139.5 120.5,141.5C 118.833,141.5 117.167,141.5 115.5,141.5C 115.232,139.901 115.566,138.568 116.5,137.5C 116.5,138.5 116.5,139.5 116.5,140.5C 117.5,140.5 118.5,140.5 119.5,140.5C 119.077,138.219 119.744,136.552 121.5,135.5 Z"/></g>
<g><path style="opacity:0.209" fill="#d5ccdf" d="M 44.5,153.5 C 44.1667,153.5 43.8333,153.5 43.5,153.5C 40.9179,153.025 38.9179,153.692 37.5,155.5C 35.9261,157.102 35.2594,159.102 35.5,161.5C 34.8333,161.833 34.1667,162.167 33.5,162.5C 34.2689,158.923 35.2689,155.423 36.5,152C 37.8333,151.833 39.1667,151.667 40.5,151.5C 42.3328,151.585 43.6661,152.252 44.5,153.5 Z"/></g>
<g><path style="opacity:0.569" fill="#a99dc2" d="M 127.5,153.5 C 123.833,153.5 120.167,153.5 116.5,153.5C 116.5,155.167 116.5,156.833 116.5,158.5C 116.5,160.167 116.5,161.833 116.5,163.5C 116.5,165.167 116.5,166.833 116.5,168.5C 116.167,168.5 115.833,168.5 115.5,168.5C 115.5,163.167 115.5,157.833 115.5,152.5C 119.702,152.183 123.702,152.517 127.5,153.5 Z"/></g>
<g><path style="opacity:0.169" fill="#dcd7e5" d="M 132.5,156.5 C 132.167,156.5 131.833,156.5 131.5,156.5C 130.205,155.512 128.872,154.512 127.5,153.5C 123.702,152.517 119.702,152.183 115.5,152.5C 115.5,157.833 115.5,163.167 115.5,168.5C 115.5,170.833 115.5,173.167 115.5,175.5C 114.833,175.5 114.167,175.5 113.5,175.5C 113.5,173.5 113.5,171.5 113.5,169.5C 114.643,166.024 114.81,162.358 114,158.5C 111.393,159.123 108.893,159.79 106.5,160.5C 105.957,160.44 105.624,160.107 105.5,159.5C 107.969,158.832 110.302,158.165 112.5,157.5C 112.5,156.167 112.5,154.833 112.5,153.5C 108.5,153.5 104.5,153.5 100.5,153.5C 100.167,153.5 99.8333,153.5 99.5,153.5C 98.5093,159.979 98.176,166.646 98.5,173.5C 97.1732,166.432 97.1732,159.265 98.5,152C 108.5,151.333 118.5,151.333 128.5,152C 130.751,152.748 132.084,154.248 132.5,156.5 Z M 113.5,169.5 C 111.369,168.686 109.036,168.186 106.5,168C 108.708,167.809 110.708,167.309 112.5,166.5C 114.504,161.164 112.504,159.164 106.5,160.5C 108.893,159.79 111.393,159.123 114,158.5C 114.81,162.358 114.643,166.024 113.5,169.5 Z"/></g>
<g><path style="opacity:0.106" fill="#d9d6e5" d="M 44.5,153.5 C 46.6545,155.617 47.6545,158.284 47.5,161.5C 47.1667,161.5 46.8333,161.5 46.5,161.5C 45.8333,158.833 45.1667,156.167 44.5,153.5 Z"/></g>
<g><path style="opacity:1" fill="#5b3d89" d="M 127.5,153.5 C 128.872,154.512 130.205,155.512 131.5,156.5C 131.87,160.186 130.537,161.186 127.5,159.5C 126.848,158.275 125.681,157.608 124,157.5C 122.615,157.514 121.449,157.848 120.5,158.5C 119.167,158.5 117.833,158.5 116.5,158.5C 116.5,156.833 116.5,155.167 116.5,153.5C 120.167,153.5 123.833,153.5 127.5,153.5 Z"/></g>
<g><path style="opacity:1" fill="#573886" d="M 169.5,155.5 C 169.5,156.167 169.5,156.833 169.5,157.5C 168.368,158.354 167.035,158.354 165.5,157.5C 162.5,156.833 159.5,156.167 156.5,155.5C 160.833,154.167 165.167,154.167 169.5,155.5 Z"/></g>
<g><path style="opacity:1" fill="#583e89" d="M 43.5,153.5 C 43.3573,155.262 43.6906,156.929 44.5,158.5C 42.3921,159.944 40.0588,160.61 37.5,160.5C 37.5,158.833 37.5,157.167 37.5,155.5C 38.9179,153.692 40.9179,153.025 43.5,153.5 Z"/></g>
<g><path style="opacity:0.965" fill="#5d3f8a" d="M 100.5,153.5 C 104.5,153.5 108.5,153.5 112.5,153.5C 112.5,154.833 112.5,156.167 112.5,157.5C 109.615,157.194 106.948,157.527 104.5,158.5C 103.265,158.721 102.265,159.388 101.5,160.5C 100.526,158.257 100.192,155.924 100.5,153.5 Z"/></g>
<g><path style="opacity:1" fill="#695497" d="M 156.5,155.5 C 159.5,156.167 162.5,156.833 165.5,157.5C 161.788,157.961 158.121,158.627 154.5,159.5C 154.229,157.62 154.896,156.287 156.5,155.5 Z"/></g>
<g><path style="opacity:0.063" fill="#e3e4ed" d="M 180.5,165.5 C 180.817,161.298 180.483,157.298 179.5,153.5C 177.833,152.167 176.167,152.167 174.5,153.5C 174.5,155.167 174.5,156.833 174.5,158.5C 174.5,160.167 174.5,161.833 174.5,163.5C 174.5,165.5 174.5,167.5 174.5,169.5C 174.557,170.609 174.89,171.609 175.5,172.5C 174.504,172.586 173.671,172.252 173,171.5C 172.79,173.058 172.29,174.391 171.5,175.5C 171.5,173.5 171.5,171.5 171.5,169.5C 172.833,166.833 172.833,164.167 171.5,161.5C 171.5,160.167 171.5,158.833 171.5,157.5C 172.461,155.735 172.795,153.735 172.5,151.5C 175.448,151.223 178.281,151.556 181,152.5C 181.814,157.02 181.647,161.354 180.5,165.5 Z"/></g>
<g><path style="opacity:0.998" fill="#5a3c88" d="M 174.5,153.5 C 175.833,153.5 177.167,153.5 178.5,153.5C 178.5,155.167 178.5,156.833 178.5,158.5C 177.167,158.5 175.833,158.5 174.5,158.5C 174.5,156.833 174.5,155.167 174.5,153.5 Z"/></g>
<g><path style="opacity:0.816" fill="#9481b2" d="M 174.5,153.5 C 176.167,152.167 177.833,152.167 179.5,153.5C 179.5,156.167 179.5,158.833 179.5,161.5C 179.167,161.5 178.833,161.5 178.5,161.5C 178.5,160.5 178.5,159.5 178.5,158.5C 178.5,156.833 178.5,155.167 178.5,153.5C 177.167,153.5 175.833,153.5 174.5,153.5 Z"/></g>
<g><path style="opacity:0.037" fill="#dfdfea" d="M 192.5,169.5 C 192.821,163.974 192.488,158.64 191.5,153.5C 190.081,152.549 188.415,152.216 186.5,152.5C 186.5,155.833 186.5,159.167 186.5,162.5C 187.844,168.662 185.678,170.662 180,168.5C 179.503,166.19 179.337,163.857 179.5,161.5C 179.5,158.833 179.5,156.167 179.5,153.5C 180.483,157.298 180.817,161.298 180.5,165.5C 180.694,167.912 182.027,168.912 184.5,168.5C 184.334,163.156 184.501,157.823 185,152.5C 187.719,151.556 190.552,151.223 193.5,151.5C 193.823,157.69 193.49,163.69 192.5,169.5 Z"/></g>
<g><path style="opacity:0.702" fill="#8982b2" d="M 127.5,159.5 C 125.621,158.659 123.621,158.325 121.5,158.5C 121.5,159.833 121.5,161.167 121.5,162.5C 120.566,161.432 120.232,160.099 120.5,158.5C 121.449,157.848 122.615,157.514 124,157.5C 125.681,157.608 126.848,158.275 127.5,159.5 Z"/></g>
<g><path style="opacity:0.71" fill="#928ab7" d="M 169.5,155.5 C 170.167,155.833 170.833,156.167 171.5,156.5C 171.5,156.833 171.5,157.167 171.5,157.5C 171.5,158.833 171.5,160.167 171.5,161.5C 171.5,161.833 171.5,162.167 171.5,162.5C 171.167,162.5 170.833,162.5 170.5,162.5C 170.784,160.585 170.451,158.919 169.5,157.5C 169.5,156.833 169.5,156.167 169.5,155.5 Z"/></g>
<g><path style="opacity:0.996" fill="#545999" d="M 43.5,153.5 C 43.8333,153.5 44.1667,153.5 44.5,153.5C 45.1667,156.167 45.8333,158.833 46.5,161.5C 46.5,163.167 46.5,164.833 46.5,166.5C 45.5,166.5 44.5,166.5 43.5,166.5C 43.8432,164.517 43.1765,163.183 41.5,162.5C 40.3774,161.243 39.7107,161.576 39.5,163.5C 37.8958,164.287 37.2291,165.62 37.5,167.5C 36.5,167.5 35.5,167.5 34.5,167.5C 34.5172,165.435 34.8505,163.435 35.5,161.5C 35.2594,159.102 35.9261,157.102 37.5,155.5C 37.5,157.167 37.5,158.833 37.5,160.5C 40.0588,160.61 42.3921,159.944 44.5,158.5C 43.6906,156.929 43.3573,155.262 43.5,153.5 Z"/></g>
<g><path style="opacity:0.396" fill="#afb0ce" d="M 112.5,157.5 C 110.302,158.165 107.969,158.832 105.5,159.5C 105.624,160.107 105.957,160.44 106.5,160.5C 112.504,159.164 114.504,161.164 112.5,166.5C 109.941,166.198 107.607,166.532 105.5,167.5C 105.167,167.5 104.833,167.5 104.5,167.5C 104.5,167.167 104.5,166.833 104.5,166.5C 106.607,165.532 108.941,165.198 111.5,165.5C 111.5,164.167 111.5,162.833 111.5,161.5C 109.167,161.5 106.833,161.5 104.5,161.5C 104.5,160.5 104.5,159.5 104.5,158.5C 106.948,157.527 109.615,157.194 112.5,157.5 Z"/></g>
<g><path style="opacity:0.898" fill="#7669a3" d="M 191.5,153.5 C 191.5,156.5 191.5,159.5 191.5,162.5C 191.167,162.5 190.833,162.5 190.5,162.5C 190.5,159.5 190.5,156.5 190.5,153.5C 189.5,153.5 188.5,153.5 187.5,153.5C 187.5,156.167 187.5,158.833 187.5,161.5C 187.5,161.833 187.5,162.167 187.5,162.5C 187.167,162.5 186.833,162.5 186.5,162.5C 186.5,159.167 186.5,155.833 186.5,152.5C 188.415,152.216 190.081,152.549 191.5,153.5 Z"/></g>
<g><path style="opacity:1" fill="#52448d" d="M 190.5,162.5 C 189.391,162.443 188.391,162.11 187.5,161.5C 187.5,158.833 187.5,156.167 187.5,153.5C 188.5,153.5 189.5,153.5 190.5,153.5C 190.5,156.5 190.5,159.5 190.5,162.5 Z"/></g>
<g><path style="opacity:0.997" fill="#515a9a" d="M 99.5,153.5 C 99.8333,153.5 100.167,153.5 100.5,153.5C 100.192,155.924 100.526,158.257 101.5,160.5C 102.265,159.388 103.265,158.721 104.5,158.5C 104.5,159.5 104.5,160.5 104.5,161.5C 106.833,161.5 109.167,161.5 111.5,161.5C 111.5,162.833 111.5,164.167 111.5,165.5C 108.941,165.198 106.607,165.532 104.5,166.5C 103.292,167.234 101.959,167.567 100.5,167.5C 100.795,165.265 100.461,163.265 99.5,161.5C 99.5,158.833 99.5,156.167 99.5,153.5 Z"/></g>
<g><path style="opacity:0.349" fill="#cad0e1" d="M 170.5,162.5 C 170.833,162.5 171.167,162.5 171.5,162.5C 170.762,166.218 168.429,168.051 164.5,168C 167.036,168.186 169.369,168.686 171.5,169.5C 167.988,170.055 164.988,169.388 162.5,167.5C 165.354,166.206 168.021,164.539 170.5,162.5 Z"/></g>
<g><path style="opacity:1" fill="#4d5497" d="M 174.5,158.5 C 175.833,158.5 177.167,158.5 178.5,158.5C 178.5,159.5 178.5,160.5 178.5,161.5C 178.5,162.5 178.5,163.5 178.5,164.5C 177.041,164.567 175.708,164.234 174.5,163.5C 174.5,161.833 174.5,160.167 174.5,158.5 Z"/></g>
<g><path style="opacity:1" fill="#51609d" d="M 131.5,156.5 C 131.833,156.5 132.167,156.5 132.5,156.5C 132.793,159.754 132.126,162.754 130.5,165.5C 128.718,166.72 126.718,167.386 124.5,167.5C 122.393,166.532 120.059,166.198 117.5,166.5C 117.737,165.209 117.404,164.209 116.5,163.5C 116.5,161.833 116.5,160.167 116.5,158.5C 117.833,158.5 119.167,158.5 120.5,158.5C 120.232,160.099 120.566,161.432 121.5,162.5C 123.5,162.5 125.5,162.5 127.5,162.5C 127.5,161.5 127.5,160.5 127.5,159.5C 130.537,161.186 131.87,160.186 131.5,156.5 Z M 123.5,159.5 C 125.337,159.639 125.67,160.306 124.5,161.5C 123.702,161.043 123.369,160.376 123.5,159.5 Z"/></g>
<g><path style="opacity:0.076" fill="#e0e1eb" d="M 127.5,159.5 C 127.5,160.5 127.5,161.5 127.5,162.5C 125.5,162.5 123.5,162.5 121.5,162.5C 121.5,161.167 121.5,159.833 121.5,158.5C 123.621,158.325 125.621,158.659 127.5,159.5 Z M 123.5,159.5 C 123.369,160.376 123.702,161.043 124.5,161.5C 125.67,160.306 125.337,159.639 123.5,159.5 Z"/></g>
<g><path style="opacity:1" fill="#51609d" d="M 165.5,157.5 C 167.035,158.354 168.368,158.354 169.5,157.5C 170.451,158.919 170.784,160.585 170.5,162.5C 168.021,164.539 165.354,166.206 162.5,167.5C 162.167,167.5 161.833,167.5 161.5,167.5C 158.752,167.598 158.086,166.598 159.5,164.5C 161.645,163.011 163.978,162.011 166.5,161.5C 166.567,160.041 166.234,158.708 165.5,157.5 Z"/></g>
<g><path style="opacity:1" fill="#475e9d" d="M 187.5,161.5 C 188.391,162.11 189.391,162.443 190.5,162.5C 190.5,164.167 190.5,165.833 190.5,167.5C 189.5,167.5 188.5,167.5 187.5,167.5C 187.5,165.833 187.5,164.167 187.5,162.5C 187.5,162.167 187.5,161.833 187.5,161.5 Z"/></g>
<g><path style="opacity:0.184" fill="#c5c5da" d="M 33.5,162.5 C 33.4828,164.565 33.1495,166.565 32.5,168.5C 31.8333,169.167 31.1667,169.833 30.5,170.5C 30.5,169.5 30.5,168.5 30.5,167.5C 28.1667,167.5 25.8333,167.5 23.5,167.5C 25.8333,166.833 28.1667,166.167 30.5,165.5C 30.5,164.167 30.5,162.833 30.5,161.5C 27.8333,161.5 25.1667,161.5 22.5,161.5C 22.5,160.5 22.5,159.5 22.5,158.5C 24.9479,157.527 27.6146,157.194 30.5,157.5C 30.5,156.167 30.5,154.833 30.5,153.5C 26.1667,153.5 21.8333,153.5 17.5,153.5C 17.5,154.833 17.5,156.167 17.5,157.5C 17.5,160.167 17.5,162.833 17.5,165.5C 17.5,168.5 17.5,171.5 17.5,174.5C 17.1667,174.5 16.8333,174.5 16.5,174.5C 16.5,166.833 16.5,159.167 16.5,151.5C 21.8333,151.5 27.1667,151.5 32.5,151.5C 32.7683,154.119 32.435,156.619 31.5,159C 28.8333,159.333 26.1667,159.667 23.5,160C 27.1391,160.026 30.4725,160.86 33.5,162.5 Z"/></g>
<g><path style="opacity:1" fill="#51629f" d="M 17.5,157.5 C 18.3149,158.429 19.1482,159.429 20,160.5C 20.7083,159.619 21.5416,158.953 22.5,158.5C 22.5,159.5 22.5,160.5 22.5,161.5C 25.1667,161.5 27.8333,161.5 30.5,161.5C 30.5,162.833 30.5,164.167 30.5,165.5C 26.7254,165.072 23.2254,165.739 20,167.5C 18.9889,166.944 18.1556,166.278 17.5,165.5C 17.5,162.833 17.5,160.167 17.5,157.5 Z"/></g>
<g><path style="opacity:0.95" fill="#5c3f8a" d="M 22.5,158.5 C 21.5416,158.953 20.7083,159.619 20,160.5C 19.1482,159.429 18.3149,158.429 17.5,157.5C 17.5,156.167 17.5,154.833 17.5,153.5C 21.8333,153.5 26.1667,153.5 30.5,153.5C 30.5,154.833 30.5,156.167 30.5,157.5C 27.6146,157.194 24.9479,157.527 22.5,158.5 Z"/></g>
<g><path style="opacity:1" fill="#4a75aa" d="M 116.5,163.5 C 117.404,164.209 117.737,165.209 117.5,166.5C 120.059,166.198 122.393,166.532 124.5,167.5C 123.167,167.5 121.833,167.5 120.5,167.5C 120.5,169.5 120.5,171.5 120.5,173.5C 119.5,173.5 118.5,173.5 117.5,173.5C 117.784,171.585 117.451,169.919 116.5,168.5C 116.5,166.833 116.5,165.167 116.5,163.5 Z"/></g>
<g><path style="opacity:0.999" fill="#5476ab" d="M 35.5,161.5 C 34.8505,163.435 34.5172,165.435 34.5,167.5C 35.5,167.5 36.5,167.5 37.5,167.5C 37.2291,165.62 37.8958,164.287 39.5,163.5C 39.9483,165.465 40.9483,165.798 42.5,164.5C 42.1373,163.817 41.8039,163.15 41.5,162.5C 43.1765,163.183 43.8432,164.517 43.5,166.5C 44.5,166.5 45.5,166.5 46.5,166.5C 46.5,164.833 46.5,163.167 46.5,161.5C 46.8333,161.5 47.1667,161.5 47.5,161.5C 48.1495,163.435 48.4828,165.435 48.5,167.5C 48.762,168.978 48.4287,170.311 47.5,171.5C 42.5995,169.964 37.5995,168.964 32.5,168.5C 33.1495,166.565 33.4828,164.565 33.5,162.5C 34.1667,162.167 34.8333,161.833 35.5,161.5 Z"/></g>
<g><path style="opacity:0.227" fill="#bdc2d9" d="M 41.5,162.5 C 41.8039,163.15 42.1373,163.817 42.5,164.5C 40.9483,165.798 39.9483,165.465 39.5,163.5C 39.7107,161.576 40.3774,161.243 41.5,162.5 Z"/></g>
<g><path style="opacity:0.184" fill="#d7dee9" d="M 47.5,161.5 C 49.2413,163.395 50.2413,165.728 50.5,168.5C 49.8333,168.167 49.1667,167.833 48.5,167.5C 48.4828,165.435 48.1495,163.435 47.5,161.5 Z"/></g>
<g><path style="opacity:0.177" fill="#d2d8e6" d="M 79.5,153.5 C 79.1667,153.5 78.8333,153.5 78.5,153.5C 76.7354,152.539 74.7354,152.205 72.5,152.5C 72.175,160.019 72.5084,167.352 73.5,174.5C 74.8333,174.5 76.1667,174.5 77.5,174.5C 77.89,171.203 78.89,168.203 80.5,165.5C 82.7967,173.458 85.13,173.458 87.5,165.5C 88.3957,164.494 89.0623,164.494 89.5,165.5C 89.5,168.5 89.5,171.5 89.5,174.5C 91.5,174.5 93.5,174.5 95.5,174.5C 95.5,170.167 95.5,165.833 95.5,161.5C 95.8064,158.615 95.4731,155.948 94.5,153.5C 91.6798,153.087 89.6798,154.087 88.5,156.5C 87.1156,158.97 85.1156,160.637 82.5,161.5C 82.5,160.5 82.5,159.5 82.5,158.5C 83.1174,158.611 83.6174,158.944 84,159.5C 85.6258,157.083 87.1258,154.583 88.5,152C 91.146,151.503 93.8127,151.336 96.5,151.5C 96.8158,159.752 96.4825,167.919 95.5,176C 89.2357,177.578 86.7357,175.078 88,168.5C 85.3333,173.833 82.6667,173.833 80,168.5C 79.6667,170.833 79.3333,173.167 79,175.5C 77.9383,176.097 76.7716,176.43 75.5,176.5C 71.9725,176.24 68.3059,176.074 64.5,176C 63,173.833 61.5,171.667 60,169.5C 59.9219,171.657 59.7552,173.657 59.5,175.5C 57.1667,175.833 54.8333,176.167 52.5,176.5C 49.7305,176.471 47.3972,175.805 45.5,174.5C 47.604,174.799 49.604,174.466 51.5,173.5C 50.8728,172.583 50.5394,171.583 50.5,170.5C 51.4902,164.355 51.8235,158.022 51.5,151.5C 56.1785,151.334 60.8452,151.501 65.5,152C 68.4281,153.26 70.2614,155.427 71,158.5C 71.0781,156.343 71.2448,154.343 71.5,152.5C 72.8333,152.167 74.1667,151.833 75.5,151.5C 77.3328,151.585 78.6661,152.252 79.5,153.5 Z M 68.5,168.5 C 69.5114,166.628 70.3448,164.628 71,162.5C 71.6667,165.5 71.6667,168.5 71,171.5C 70.6232,170.058 69.7899,169.058 68.5,168.5 Z M 60.5,159.5 C 61.675,159.281 62.675,159.614 63.5,160.5C 62.277,161.614 60.9437,161.781 59.5,161C 60.056,160.617 60.3893,160.117 60.5,159.5 Z"/></g>
<g><path style="opacity:1" fill="#4a67a2" d="M 68.5,156.5 C 69.1524,157.449 69.4857,158.615 69.5,160C 69.6068,162.221 68.9402,164.054 67.5,165.5C 66.193,167.223 66.193,169.057 67.5,171C 65.8034,171.384 64.1368,171.218 62.5,170.5C 62.6716,169.508 62.3382,168.842 61.5,168.5C 61.1575,166.775 60.1575,166.275 58.5,167C 57.6634,168.011 57.33,169.178 57.5,170.5C 56.0413,170.567 54.7079,170.234 53.5,169.5C 53.5,166.5 53.5,163.5 53.5,160.5C 54.6049,161.6 55.9382,162.267 57.5,162.5C 57.8333,162.5 58.1667,162.5 58.5,162.5C 60.5,162.5 62.5,162.5 64.5,162.5C 64.5,161.5 64.5,160.5 64.5,159.5C 65.265,160.66 66.265,161.66 67.5,162.5C 68.4656,160.604 68.7989,158.604 68.5,156.5 Z"/></g>
<g><path style="opacity:0.998" fill="#58629f" d="M 94.5,153.5 C 95.4731,155.948 95.8064,158.615 95.5,161.5C 95.1667,161.5 94.8333,161.5 94.5,161.5C 93.596,162.209 93.2627,163.209 93.5,164.5C 91.9397,164.481 90.4397,164.148 89,163.5C 87.9701,163.836 87.4701,164.503 87.5,165.5C 85.13,173.458 82.7967,173.458 80.5,165.5C 79.779,163.618 78.779,163.285 77.5,164.5C 76.5284,166.493 75.1951,166.826 73.5,165.5C 73.5,164.167 73.5,162.833 73.5,161.5C 76.0545,162.388 78.7212,162.721 81.5,162.5C 81.3713,160.784 81.038,159.117 80.5,157.5C 81.1667,157.833 81.8333,158.167 82.5,158.5C 82.5,159.5 82.5,160.5 82.5,161.5C 85.1156,160.637 87.1156,158.97 88.5,156.5C 88.5,157.833 88.5,159.167 88.5,160.5C 90.1667,160.5 91.8333,160.5 93.5,160.5C 93.9926,158.194 94.3259,155.861 94.5,153.5 Z"/></g>
<g><path style="opacity:1" fill="#583f8a" d="M 94.5,153.5 C 94.3259,155.861 93.9926,158.194 93.5,160.5C 91.8333,160.5 90.1667,160.5 88.5,160.5C 88.5,159.167 88.5,157.833 88.5,156.5C 89.6798,154.087 91.6798,153.087 94.5,153.5 Z"/></g>
<g><path style="opacity:1" fill="#55428c" d="M 78.5,153.5 C 78.8333,153.5 79.1667,153.5 79.5,153.5C 79.8333,154.833 80.1667,156.167 80.5,157.5C 81.038,159.117 81.3713,160.784 81.5,162.5C 78.7212,162.721 76.0545,162.388 73.5,161.5C 73.5,158.833 73.5,156.167 73.5,153.5C 75.1667,153.5 76.8333,153.5 78.5,153.5 Z"/></g>
<g><path style="opacity:0.58" fill="#9c9bc1" d="M 78.5,153.5 C 76.8333,153.5 75.1667,153.5 73.5,153.5C 73.5,156.167 73.5,158.833 73.5,161.5C 73.5,162.833 73.5,164.167 73.5,165.5C 73.5,168.5 73.5,171.5 73.5,174.5C 72.5084,167.352 72.175,160.019 72.5,152.5C 74.7354,152.205 76.7354,152.539 78.5,153.5 Z"/></g>
<g><path style="opacity:0.962" fill="#59428c" d="M 68.5,156.5 C 68.7989,158.604 68.4656,160.604 67.5,162.5C 66.265,161.66 65.265,160.66 64.5,159.5C 64.5,158.833 64.1667,158.5 63.5,158.5C 61.7354,157.539 59.7354,157.205 57.5,157.5C 57.5,159.167 57.5,160.833 57.5,162.5C 55.9382,162.267 54.6049,161.6 53.5,160.5C 53.5,158.167 53.5,155.833 53.5,153.5C 57.8461,153.334 62.1794,153.501 66.5,154C 67.3805,154.708 68.0472,155.542 68.5,156.5 Z M 60.5,159.5 C 60.3893,160.117 60.056,160.617 59.5,161C 60.9437,161.781 62.277,161.614 63.5,160.5C 62.675,159.614 61.675,159.281 60.5,159.5 Z"/></g>
<g><path style="opacity:0.231" fill="#d0cfe1" d="M 63.5,158.5 C 64.1667,158.5 64.5,158.833 64.5,159.5C 64.5,160.5 64.5,161.5 64.5,162.5C 62.5,162.5 60.5,162.5 58.5,162.5C 58.5,161.167 58.5,159.833 58.5,158.5C 60.1667,158.5 61.8333,158.5 63.5,158.5 Z M 60.5,159.5 C 60.3893,160.117 60.056,160.617 59.5,161C 60.9437,161.781 62.277,161.614 63.5,160.5C 62.675,159.614 61.675,159.281 60.5,159.5 Z"/></g>
<g><path style="opacity:0.704" fill="#8981b2" d="M 63.5,158.5 C 61.8333,158.5 60.1667,158.5 58.5,158.5C 58.5,159.833 58.5,161.167 58.5,162.5C 58.1667,162.5 57.8333,162.5 57.5,162.5C 57.5,160.833 57.5,159.167 57.5,157.5C 59.7354,157.205 61.7354,157.539 63.5,158.5 Z"/></g>
<g><path style="opacity:0.137" fill="#dbd5e4" d="M 79.5,153.5 C 81.2503,154.659 82.2503,156.326 82.5,158.5C 81.8333,158.167 81.1667,157.833 80.5,157.5C 80.1667,156.167 79.8333,154.833 79.5,153.5 Z"/></g>
<g><path style="opacity:1" fill="#466aa4" d="M 174.5,163.5 C 175.708,164.234 177.041,164.567 178.5,164.5C 178.5,166.167 178.5,167.833 178.5,169.5C 177.167,169.5 175.833,169.5 174.5,169.5C 174.5,167.5 174.5,165.5 174.5,163.5 Z"/></g>
<g><path style="opacity:0.614" fill="#8ca6c7" d="M 80.5,165.5 C 78.89,168.203 77.89,171.203 77.5,174.5C 77.5,171.167 77.5,167.833 77.5,164.5C 78.779,163.285 79.779,163.618 80.5,165.5 Z"/></g>
<g><path style="opacity:0.059" fill="#e0e6ef" d="M 112.5,166.5 C 110.708,167.309 108.708,167.809 106.5,168C 109.036,168.186 111.369,168.686 113.5,169.5C 110.302,170.036 107.635,169.369 105.5,167.5C 107.607,166.532 109.941,166.198 112.5,166.5 Z"/></g>
<g><path style="opacity:0.125" fill="#c5d9e6" d="M 115.5,168.5 C 115.833,168.5 116.167,168.5 116.5,168.5C 116.5,170.5 116.5,172.5 116.5,174.5C 118.167,174.5 119.833,174.5 121.5,174.5C 121.5,172.5 121.5,170.5 121.5,168.5C 124.669,168.662 126.669,170.328 127.5,173.5C 129.045,174.452 130.712,174.785 132.5,174.5C 132.5,173.167 132.5,171.833 132.5,170.5C 133.167,171.167 133.833,171.833 134.5,172.5C 134.5,173.833 134.5,175.167 134.5,176.5C 132.143,176.663 129.81,176.497 127.5,176C 125.877,173.92 124.377,171.754 123,169.5C 123.697,175.993 121.197,177.993 115.5,175.5C 115.5,173.167 115.5,170.833 115.5,168.5 Z"/></g>
<g><path style="opacity:1" fill="#447aad" d="M 77.5,164.5 C 77.5,167.833 77.5,171.167 77.5,174.5C 76.1667,174.5 74.8333,174.5 73.5,174.5C 73.5,171.5 73.5,168.5 73.5,165.5C 75.1951,166.826 76.5284,166.493 77.5,164.5 Z"/></g>
<g><path style="opacity:1" fill="#4c75aa" d="M 94.5,161.5 C 94.665,164.85 94.4983,168.183 94,171.5C 93.6924,172.308 93.1924,172.975 92.5,173.5C 91.247,170.816 90.247,168.15 89.5,165.5C 89.0623,164.494 88.3957,164.494 87.5,165.5C 87.4701,164.503 87.9701,163.836 89,163.5C 90.4397,164.148 91.9397,164.481 93.5,164.5C 93.2627,163.209 93.596,162.209 94.5,161.5 Z"/></g>
<g><path style="opacity:0.122" fill="#ced5e4" d="M 171.5,156.5 C 170.833,156.167 170.167,155.833 169.5,155.5C 165.167,151.5 160.833,151.5 156.5,155.5C 154.896,156.287 154.229,157.62 154.5,159.5C 158.121,158.627 161.788,157.961 165.5,157.5C 166.234,158.708 166.567,160.041 166.5,161.5C 163.978,162.011 161.645,163.011 159.5,164.5C 158.504,164.414 157.671,164.748 157,165.5C 155.57,168.353 154.737,171.353 154.5,174.5C 154.5,174.833 154.5,175.167 154.5,175.5C 153.542,175.047 152.708,174.381 152,173.5C 145.937,177.597 140.103,177.264 134.5,172.5C 134.157,170.517 134.824,169.183 136.5,168.5C 136.178,170.722 136.845,172.556 138.5,174C 141.833,174.667 145.167,174.667 148.5,174C 151.979,171.005 152.312,167.839 149.5,164.5C 147.388,162.794 145.055,161.461 142.5,160.5C 143.053,158.448 144.053,158.115 145.5,159.5C 147.565,159.483 149.565,159.15 151.5,158.5C 151.715,156.821 151.048,155.821 149.5,155.5C 146.944,152.576 143.944,151.91 140.5,153.5C 137.475,154.033 136.142,155.867 136.5,159C 136.391,161.712 137.391,163.878 139.5,165.5C 136.812,164.976 135.312,163.309 135,160.5C 134.07,162.936 132.903,165.269 131.5,167.5C 132.127,168.417 132.461,169.417 132.5,170.5C 130.787,169.365 130.12,167.698 130.5,165.5C 132.126,162.754 132.793,159.754 132.5,156.5C 133.151,157.091 133.818,157.757 134.5,158.5C 135.562,153.38 138.729,151.046 144,151.5C 148.162,151.081 151.162,152.747 153,156.5C 157.011,151.681 162.178,150.181 168.5,152C 170.376,152.918 171.376,154.418 171.5,156.5 Z M 151.5,158.5 C 155.303,162.404 159.137,162.404 163,158.5C 163.5,158.833 164,159.167 164.5,159.5C 161.995,161.253 159.329,162.753 156.5,164C 155.54,165.419 154.707,166.919 154,168.5C 153.323,165.155 151.489,162.655 148.5,161C 149.942,160.623 150.942,159.79 151.5,158.5 Z"/></g>
<g><path style="opacity:0.706" fill="#89a1c5" d="M 142.5,165.5 C 144.117,166.038 145.784,166.371 147.5,166.5C 147.737,167.791 147.404,168.791 146.5,169.5C 146.5,168.167 145.833,167.5 144.5,167.5C 144.167,167.5 143.833,167.5 143.5,167.5C 143.167,166.833 142.833,166.167 142.5,165.5 Z"/></g>
<g><path style="opacity:0.224" fill="#d8e0ea" d="M 139.5,165.5 C 140.5,165.5 141.5,165.5 142.5,165.5C 142.833,166.167 143.167,166.833 143.5,167.5C 142.508,167.328 141.842,167.662 141.5,168.5C 139.833,168.5 138.167,168.5 136.5,168.5C 137.306,167.272 138.306,166.272 139.5,165.5 Z"/></g>
<g><path style="opacity:1" fill="#59609e" d="M 140.5,153.5 C 140.5,153.833 140.5,154.167 140.5,154.5C 137.978,156.002 137.978,157.335 140.5,158.5C 140.833,159.5 141.5,160.167 142.5,160.5C 145.055,161.461 147.388,162.794 149.5,164.5C 149.5,165.833 148.833,166.5 147.5,166.5C 145.784,166.371 144.117,166.038 142.5,165.5C 141.5,165.5 140.5,165.5 139.5,165.5C 137.391,163.878 136.391,161.712 136.5,159C 136.142,155.867 137.475,154.033 140.5,153.5 Z"/></g>
<g><path style="opacity:0.745" fill="#8a7daf" d="M 149.5,155.5 C 151.048,155.821 151.715,156.821 151.5,158.5C 149.565,159.15 147.565,159.483 145.5,159.5C 144.053,158.115 143.053,158.448 142.5,160.5C 141.5,160.167 140.833,159.5 140.5,158.5C 142.895,157.186 145.395,157.186 148,158.5C 149.039,157.756 149.539,156.756 149.5,155.5 Z"/></g>
<g><path style="opacity:1" fill="#563785" d="M 140.5,154.5 C 143.57,154.368 146.57,154.701 149.5,155.5C 149.539,156.756 149.039,157.756 148,158.5C 145.395,157.186 142.895,157.186 140.5,158.5C 137.978,157.335 137.978,156.002 140.5,154.5 Z"/></g>
<g><path style="opacity:1" fill="#765296" d="M 169.5,155.5 C 165.167,154.167 160.833,154.167 156.5,155.5C 160.833,151.5 165.167,151.5 169.5,155.5 Z"/></g>
<g><path style="opacity:1" fill="#755094" d="M 149.5,155.5 C 146.57,154.701 143.57,154.368 140.5,154.5C 140.5,154.167 140.5,153.833 140.5,153.5C 143.944,151.91 146.944,152.576 149.5,155.5 Z"/></g>
<g><path style="opacity:0.431" fill="#bacddf" d="M 144.5,167.5 C 145.833,167.5 146.5,168.167 146.5,169.5C 144.545,170.93 142.879,170.597 141.5,168.5C 142.791,168.737 143.791,168.404 144.5,167.5 Z"/></g>
<g><path style="opacity:1" fill="#5088b5" d="M 61.5,168.5 C 60.5,168.5 59.5,168.5 58.5,168.5C 58.5,170.5 58.5,172.5 58.5,174.5C 56.8333,174.5 55.1667,174.5 53.5,174.5C 53.5,172.833 53.5,171.167 53.5,169.5C 54.7079,170.234 56.0413,170.567 57.5,170.5C 57.33,169.178 57.6634,168.011 58.5,167C 60.1575,166.275 61.1575,166.775 61.5,168.5 Z"/></g>
<g><path style="opacity:1" fill="#4581b1" d="M 149.5,164.5 C 152.312,167.839 151.979,171.005 148.5,174C 145.167,174.667 141.833,174.667 138.5,174C 136.845,172.556 136.178,170.722 136.5,168.5C 138.167,168.5 139.833,168.5 141.5,168.5C 142.879,170.597 144.545,170.93 146.5,169.5C 147.404,168.791 147.737,167.791 147.5,166.5C 148.833,166.5 149.5,165.833 149.5,164.5 Z"/></g>
<g><path style="opacity:0.997" fill="#588eb9" d="M 48.5,167.5 C 49.1667,167.833 49.8333,168.167 50.5,168.5C 50.5,169.167 50.5,169.833 50.5,170.5C 50.5394,171.583 50.8728,172.583 51.5,173.5C 49.604,174.466 47.604,174.799 45.5,174.5C 45.5,173.5 45.5,172.5 45.5,171.5C 42.5,171.5 39.5,171.5 36.5,171.5C 36.5,172.5 36.5,173.5 36.5,174.5C 34.5,174.5 32.5,174.5 30.5,174.5C 30.5,173.167 30.5,171.833 30.5,170.5C 31.1667,169.833 31.8333,169.167 32.5,168.5C 37.5995,168.964 42.5995,169.964 47.5,171.5C 48.4287,170.311 48.762,168.978 48.5,167.5 Z"/></g>
<g><path style="opacity:1" fill="#518bb7" d="M 67.5,165.5 C 67.2627,166.791 67.596,167.791 68.5,168.5C 68.3573,170.262 68.6906,171.929 69.5,173.5C 66.231,174.932 63.8977,173.932 62.5,170.5C 64.1368,171.218 65.8034,171.384 67.5,171C 66.193,169.057 66.193,167.223 67.5,165.5 Z"/></g>
<g><path style="opacity:1" fill="#4381b1" d="M 99.5,161.5 C 100.461,163.265 100.795,165.265 100.5,167.5C 101.959,167.567 103.292,167.234 104.5,166.5C 104.5,166.833 104.5,167.167 104.5,167.5C 104.5,168.5 104.5,169.5 104.5,170.5C 107.167,170.5 109.833,170.5 112.5,170.5C 112.5,171.833 112.5,173.167 112.5,174.5C 108.167,174.5 103.833,174.5 99.5,174.5C 99.5,170.167 99.5,165.833 99.5,161.5 Z"/></g>
<g><path style="opacity:1" fill="#4181b2" d="M 159.5,164.5 C 158.086,166.598 158.752,167.598 161.5,167.5C 161.196,168.15 160.863,168.817 160.5,169.5C 163.768,170.487 167.102,170.82 170.5,170.5C 170.5,171.833 170.5,173.167 170.5,174.5C 165.167,174.5 159.833,174.5 154.5,174.5C 154.737,171.353 155.57,168.353 157,165.5C 157.671,164.748 158.504,164.414 159.5,164.5 Z"/></g>
<g><path style="opacity:1" fill="#4e84b3" d="M 178.5,161.5 C 178.833,161.5 179.167,161.5 179.5,161.5C 179.337,163.857 179.503,166.19 180,168.5C 185.678,170.662 187.844,168.662 186.5,162.5C 186.833,162.5 187.167,162.5 187.5,162.5C 187.5,164.167 187.5,165.833 187.5,167.5C 188.5,167.5 189.5,167.5 190.5,167.5C 190.5,165.833 190.5,164.167 190.5,162.5C 190.833,162.5 191.167,162.5 191.5,162.5C 191.726,173.917 186.393,177.584 175.5,173.5C 175.5,173.167 175.5,172.833 175.5,172.5C 174.89,171.609 174.557,170.609 174.5,169.5C 175.833,169.5 177.167,169.5 178.5,169.5C 178.5,167.833 178.5,166.167 178.5,164.5C 178.5,163.5 178.5,162.5 178.5,161.5 Z"/></g>
<g><path style="opacity:1" fill="#5289b6" d="M 130.5,165.5 C 130.12,167.698 130.787,169.365 132.5,170.5C 132.5,171.833 132.5,173.167 132.5,174.5C 130.712,174.785 129.045,174.452 127.5,173.5C 126.669,170.328 124.669,168.662 121.5,168.5C 121.5,170.5 121.5,172.5 121.5,174.5C 119.833,174.5 118.167,174.5 116.5,174.5C 116.5,172.5 116.5,170.5 116.5,168.5C 117.451,169.919 117.784,171.585 117.5,173.5C 118.5,173.5 119.5,173.5 120.5,173.5C 120.5,171.5 120.5,169.5 120.5,167.5C 121.833,167.5 123.167,167.5 124.5,167.5C 126.718,167.386 128.718,166.72 130.5,165.5 Z"/></g>
<g><path style="opacity:0.996" fill="#5187b5" d="M 17.5,165.5 C 18.1556,166.278 18.9889,166.944 20,167.5C 23.2254,165.739 26.7254,165.072 30.5,165.5C 28.1667,166.167 25.8333,166.833 23.5,167.5C 22.5318,169.607 22.1984,171.941 22.5,174.5C 20.8333,174.5 19.1667,174.5 17.5,174.5C 17.5,171.5 17.5,168.5 17.5,165.5 Z"/></g>
<g><path style="opacity:1" fill="#6798bf" d="M 94.5,161.5 C 94.8333,161.5 95.1667,161.5 95.5,161.5C 95.5,165.833 95.5,170.167 95.5,174.5C 93.5,174.5 91.5,174.5 89.5,174.5C 89.5,171.5 89.5,168.5 89.5,165.5C 90.247,168.15 91.247,170.816 92.5,173.5C 93.1924,172.975 93.6924,172.308 94,171.5C 94.4983,168.183 94.665,164.85 94.5,161.5 Z"/></g>
<g><path style="opacity:0.461" fill="#afc9dd" d="M 99.5,153.5 C 99.5,156.167 99.5,158.833 99.5,161.5C 99.5,165.833 99.5,170.167 99.5,174.5C 103.833,174.5 108.167,174.5 112.5,174.5C 112.5,173.167 112.5,171.833 112.5,170.5C 109.833,170.5 107.167,170.5 104.5,170.5C 104.5,169.5 104.5,168.5 104.5,167.5C 104.833,167.5 105.167,167.5 105.5,167.5C 107.635,169.369 110.302,170.036 113.5,169.5C 113.5,171.5 113.5,173.5 113.5,175.5C 108.695,176.487 103.695,176.821 98.5,176.5C 98.5,175.5 98.5,174.5 98.5,173.5C 98.176,166.646 98.5093,159.979 99.5,153.5 Z"/></g>
<g><path style="opacity:0.421" fill="#b1cddf" d="M 161.5,167.5 C 161.833,167.5 162.167,167.5 162.5,167.5C 164.988,169.388 167.988,170.055 171.5,169.5C 171.5,171.5 171.5,173.5 171.5,175.5C 165.833,176.833 160.167,176.833 154.5,175.5C 154.5,175.167 154.5,174.833 154.5,174.5C 159.833,174.5 165.167,174.5 170.5,174.5C 170.5,173.167 170.5,171.833 170.5,170.5C 167.102,170.82 163.768,170.487 160.5,169.5C 160.863,168.817 161.196,168.15 161.5,167.5 Z"/></g>
<g><path style="opacity:0.118" fill="#ccdeea" d="M 23.5,167.5 C 23.5,170.5 23.5,173.5 23.5,176.5C 20.6122,177.01 18.2789,176.344 16.5,174.5C 16.8333,174.5 17.1667,174.5 17.5,174.5C 19.1667,174.5 20.8333,174.5 22.5,174.5C 22.1984,171.941 22.5318,169.607 23.5,167.5 Z"/></g>
<g><path style="opacity:0.118" fill="#d7e5ed" d="M 30.5,170.5 C 30.5,171.833 30.5,173.167 30.5,174.5C 32.5,174.5 34.5,174.5 36.5,174.5C 36.5,173.5 36.5,172.5 36.5,171.5C 39.5,171.5 42.5,171.5 45.5,171.5C 45.5,172.5 45.5,173.5 45.5,174.5C 43.1799,172.774 40.5133,172.107 37.5,172.5C 37.67,173.822 37.3366,174.989 36.5,176C 34.1667,176.667 31.8333,176.667 29.5,176C 28.2613,173.882 28.5946,172.049 30.5,170.5 Z"/></g>
<g><path style="opacity:0.298" fill="#bbcee0" d="M 191.5,153.5 C 192.488,158.64 192.821,163.974 192.5,169.5C 192.061,173.106 190.061,175.272 186.5,176C 183.833,176.667 181.167,176.667 178.5,176C 177.058,175.623 176.058,174.79 175.5,173.5C 186.393,177.584 191.726,173.917 191.5,162.5C 191.5,159.5 191.5,156.5 191.5,153.5 Z"/></g>
</svg>
